<svg width="30" height="24" viewBox="0 0 30 24" fill="none" xmlns="http://www.w3.org/2000/svg">
<path fill-rule="evenodd" clip-rule="evenodd" d="M5.19189 5.16675L2.69189 0.166748C1.9248 0.166748 1.28516 0.423828 0.771484 0.938232C0.257324 1.45166 0 2.09155 0 2.8584V20.8083C0 21.575 0.257324 22.2156 0.771484 22.73C1.28516 23.2434 1.9248 23.5 2.69189 23.5H27.3081C28.0752 23.5 28.7153 23.2427 29.23 22.7283C29.7432 22.2151 30 21.575 30 20.8083V2.8584C30 2.09155 29.7427 1.45166 29.2285 0.938232C28.7148 0.423828 28.0752 0.166748 27.3081 0.166748H24.3584L26.8584 5.16675H21.8584L19.3584 0.166748H16.0249L18.5249 5.16675H13.5249L11.0249 0.166748H7.69189L10.1919 5.16675H5.19189ZM21 14C21 10.6863 18.314 8 15 8C11.686 8 9 10.6863 9 14C9 17.3137 11.686 20 15 20H19.7998C19.9019 20 20.0015 19.9741 20.0894 19.9255C20.1387 19.8984 20.1841 19.8645 20.2241 19.8242C20.3369 19.7117 20.3999 19.5591 20.3999 19.3999C20.3999 19.241 20.3369 19.0884 20.2241 18.9758C20.1118 18.8633 19.959 18.8 19.7998 18.8H18.6006C19.3462 18.2415 19.9512 17.5168 20.3677 16.6836C20.7842 15.8503 21.001 14.9316 21 14ZM14.1514 15.5515C14.3765 15.3264 14.6816 15.2 15 15.2C15.3184 15.2 15.6235 15.3264 15.8486 15.5515C15.9727 15.6758 16.0669 15.8245 16.1265 15.9861C16.1748 16.1174 16.2002 16.2573 16.2002 16.3999C16.2002 16.7183 16.0737 17.0234 15.8486 17.2485C15.6235 17.4736 15.3184 17.6001 15 17.6001C14.8281 17.6001 14.6602 17.5632 14.5063 17.4939C14.3755 17.4348 14.2549 17.3521 14.1514 17.2485C13.9263 17.0234 13.7998 16.7183 13.7998 16.3999C13.7998 16.0818 13.9263 15.7766 14.1514 15.5515ZM12.1719 12.8792C12.3071 12.8274 12.4521 12.8 12.6001 12.8C12.9185 12.8 13.2236 12.9265 13.4487 13.1514C13.6733 13.3765 13.7998 13.6816 13.7998 14C13.7998 14.1804 13.7593 14.3564 13.6831 14.5164C13.625 14.6387 13.5459 14.7512 13.4487 14.8486C13.2236 15.0735 12.9185 15.2 12.6001 15.2C12.2817 15.2 11.9766 15.0735 11.7515 14.8486C11.5264 14.6235 11.3999 14.3184 11.3999 14C11.3999 13.6816 11.5264 13.3765 11.7515 13.1514C11.8721 13.031 12.0156 12.9387 12.1719 12.8792ZM17.0361 12.8564C17.1528 12.8193 17.2754 12.8 17.3999 12.8C17.7183 12.8 18.0234 12.9265 18.2485 13.1514C18.4736 13.3765 18.6001 13.6816 18.6001 14C18.6001 14.3184 18.4736 14.6235 18.2485 14.8486C18.0234 15.0735 17.7183 15.2 17.3999 15.2C17.0815 15.2 16.7764 15.0735 16.5513 14.8486C16.4102 14.707 16.3076 14.5337 16.251 14.3455C16.2178 14.2344 16.2002 14.1182 16.2002 14C16.2002 13.6816 16.3267 13.3765 16.5513 13.1514C16.6885 13.0146 16.855 12.9143 17.0361 12.8564ZM14.1514 10.7515C14.3765 10.5264 14.6816 10.3999 15 10.3999C15.3184 10.3999 15.6235 10.5264 15.8486 10.7515C16.0737 10.9766 16.2002 11.2817 16.2002 11.6001C16.2002 11.9182 16.0737 12.2234 15.8486 12.4485C15.6235 12.6736 15.3184 12.8 15 12.8C14.6816 12.8 14.3765 12.6736 14.1514 12.4485C13.9263 12.2234 13.7998 11.9182 13.7998 11.6001C13.7998 11.2817 13.9263 10.9766 14.1514 10.7515Z" fill="url(#paint0_linear_122_16)"/>
<defs>
<linearGradient id="paint0_linear_122_16" x1="15" y1="0.166748" x2="15" y2="23.5" gradientUnits="userSpaceOnUse">
<stop stop-color="#C70000"/>
<stop offset="1" stop-color="#690000"/>
</linearGradient>
</defs>
</svg>
